<?xml version="1.0" encoding="UTF-8"?>
<svg width="1010px" height="1009px" viewBox="0 0 1010 1009" version="1.1" xmlns="http://www.w3.org/2000/svg" xmlns:xlink="http://www.w3.org/1999/xlink">
    <!-- Generator: Sketch 49.2 (51160) - http://www.bohemiancoding.com/sketch -->
    <title>parent-lines</title>
    <desc>Created with Sketch.</desc>
    <defs></defs>
    <g id="Branded-Content" stroke="none" stroke-width="1" fill="none" fill-rule="evenodd">
        <g id="Branded-Content---Desktop" transform="translate(-247.000000, 0.000000)">
            <g id="Group-5" transform="translate(-393.000000, -692.000000)">
                <g id="Lines-over-hero" transform="translate(630.000000, 690.000000)">
                    <g id="parent-lines" transform="translate(515.500000, 505.402597) rotate(-180.000000) translate(-515.500000, -505.402597) translate(10.000000, 0.402597)">
                        <polygon id="Fill-1" fill="#FFFFFF" points="1010.0844 -0.000171633749 0.000171757911 1009.35388 9.71479922 1009.35388 1010.0844 9.70743321"></polygon>
                        <polygon id="Fill-2" fill="#FFFFFF" points="41.0941108 1009.35405 50.8104559 1009.35405 1010.08354 50.7726957 1010.08354 41.0650908"></polygon>
                        <polygon id="Fill-3" fill="#FFFFFF" points="82.1866759 1009.35405 91.9030209 1009.35405 1010.08475 91.8377865 1010.08475 82.1301816"></polygon>
                        <polygon id="Fill-4" fill="#FFFFFF" points="123.282333 1009.35405 132.995242 1009.35405 1010.08389 132.899445 1010.08389 123.193556"></polygon>
                        <polygon id="Fill-5" fill="#FFFFFF" points="164.376443 1009.35405 174.089353 1009.35405 1010.08492 173.966252 1010.08492 164.256931"></polygon>
                        <polygon id="Fill-6" fill="#FFFFFF" points="205.469008 1009.35405 215.183636 1009.35405 1010.0844 215.029626 1010.0844 205.322021"></polygon>
                        <polygon id="Fill-7" fill="#FFFFFF" points="246.563119 1009.35405 256.279464 1009.35405 1010.08372 256.094717 1010.08372 246.385396"></polygon>
                        <polygon id="Fill-8" fill="#FFFFFF" points="287.65723 1009.35405 297.371858 1009.35405 1010.08475 297.158091 1010.08475 287.44877"></polygon>
                        <polygon id="Fill-9" fill="#FFFFFF" points="328.751341 1009.35405 338.465968 1009.35405 1010.08406 338.221466 1010.08406 328.515577"></polygon>
                        <polygon id="Fill-10" fill="#FFFFFF" points="369.845452 1009.35405 379.560079 1009.35405 1010.08509 379.288273 1010.08509 369.578952"></polygon>
                        <polygon id="Fill-11" fill="#FFFFFF" points="410.939563 1009.35405 420.652472 1009.35405 1010.0844 420.351648 1010.0844 410.642326"></polygon>
                        <polygon id="Fill-12" fill="#FFFFFF" points="452.033673 1009.35405 461.748301 1009.35405 1010.08372 461.415022 1010.08372 451.707417"></polygon>
                        <polygon id="Fill-13" fill="#FFFFFF" points="493.126238 1009.35405 502.842583 1009.35405 1010.08492 502.480113 1010.08492 492.770792"></polygon>
                        <polygon id="Fill-14" fill="#FFFFFF" points="534.220349 1009.35405 543.934977 1009.35405 1010.08423 543.541771 1010.08423 533.834166"></polygon>
                        <polygon id="Fill-15" fill="#FFFFFF" points="575.31446 1009.35405 585.029088 1009.35405 1010.08354 584.606862 1010.08354 574.900973"></polygon>
                        <polygon id="Fill-16" fill="#FFFFFF" points="616.408571 1009.35405 626.123198 1009.35405 1010.08457 625.673669 1010.08457 615.964348"></polygon>
                        <polygon id="Fill-17" fill="#FFFFFF" points="657.502682 1009.35405 667.217309 1009.35405 1010.08389 666.737043 1010.08389 657.029438"></polygon>
                        <polygon id="Fill-18" fill="#FFFFFF" points="698.596793 1009.35405 708.31142 1009.35405 1010.08492 707.802134 1010.08492 698.092813"></polygon>
                        <polygon id="Fill-19" fill="#FFFFFF" points="739.689358 1009.35405 749.405703 1009.35405 1010.0844 748.863792 1010.0844 739.156187"></polygon>
                        <polygon id="Fill-20" fill="#FFFFFF" points="780.783469 1009.35405 790.498096 1009.35405 1010.08372 789.928883 1010.08372 780.221278"></polygon>
                        <polygon id="Fill-21" fill="#FFFFFF" points="821.879125 1009.35405 831.593753 1009.35405 1010.08457 830.993974 1010.08457 821.286369"></polygon>
                        <polygon id="Fill-22" fill="#FFFFFF" points="862.973236 1009.35405 872.687863 1009.35405 1010.08389 872.059065 1010.08389 862.35146"></polygon>
                        <polygon id="Fill-23" fill="#FFFFFF" points="904.065801 1009.35405 913.780429 1009.35405 1010.08509 913.122439 1010.08509 903.413118"></polygon>
                        <polygon id="Fill-24" fill="#FFFFFF" points="945.159912 1009.35405 954.874539 1009.35405 1010.0844 954.185814 1010.0844 944.478209"></polygon>
                        <polygon id="Fill-25" fill="#FFFFFF" points="986.254023 1009.35405 995.970368 1009.35405 1010.08372 995.250904 1010.08372 985.541583"></polygon>
                        <polygon id="Fill-26" fill="#FFFFFF" points="20.4805851 1009.35405 30.1969302 1009.35405 1010.0844 30.1749294 1010.0844 20.4673246"></polygon>
                        <polygon id="Fill-27" fill="#FFFFFF" points="61.5746959 1009.35405 71.2893234 1009.35405 1010.08372 71.2400202 1010.08372 61.5324154"></polygon>
                        <polygon id="Fill-28" fill="#FFFFFF" points="102.668807 1009.35405 112.385152 1009.35405 1010.08475 112.305111 1010.08475 102.59579"></polygon>
                        <polygon id="Fill-29" fill="#FFFFFF" points="143.762918 1009.35405 153.479263 1009.35405 1010.08406 153.366769 1010.08406 143.659164"></polygon>
                        <polygon id="Fill-30" fill="#FFFFFF" points="184.858574 1009.35405 194.573202 1009.35405 1010.08492 194.43186 1010.08492 184.724255"></polygon>
                        <polygon id="Fill-31" fill="#FFFFFF" points="225.951139 1009.35405 235.665767 1009.35405 1010.0844 235.496951 1010.0844 225.789346"></polygon>
                        <polygon id="Fill-32" fill="#FFFFFF" points="267.04525 1009.35405 276.761595 1009.35405 1010.08372 276.560325 1010.08372 266.854437"></polygon>
                        <polygon id="Fill-33" fill="#FFFFFF" points="308.137815 1009.35405 317.85416 1009.35405 1010.08492 317.625416 1010.08492 307.916095"></polygon>
                        <polygon id="Fill-34" fill="#FFFFFF" points="349.231926 1009.35405 358.946553 1009.35405 1010.08423 358.68879 1010.08423 348.981186"></polygon>
                        <polygon id="Fill-35" fill="#FFFFFF" points="390.326037 1009.35405 400.040664 1009.35405 1010.08354 399.753881 1010.08354 390.046276"></polygon>
                        <polygon id="Fill-36" fill="#FFFFFF" points="431.421694 1009.35405 441.136321 1009.35405 1010.0844 440.817256 1010.0844 431.109651"></polygon>
                        <polygon id="Fill-37" fill="#FFFFFF" points="472.515804 1009.35405 482.230432 1009.35405 1010.08372 481.882347 1010.08372 472.174742"></polygon>
                        <polygon id="Fill-38" fill="#FFFFFF" points="513.608369 1009.35405 523.322997 1009.35405 1010.08492 522.947437 1010.08492 513.238116"></polygon>
                        <polygon id="Fill-39" fill="#FFFFFF" points="554.70248 1009.35405 564.417108 1009.35405 1010.08423 564.009096 1010.08423 554.303207"></polygon>
                        <polygon id="Fill-40" fill="#FFFFFF" points="595.795045 1009.35405 605.509673 1009.35405 1010.08372 605.074186 1010.08372 595.366581"></polygon>
                        <polygon id="Fill-41" fill="#FFFFFF" points="636.889156 1009.35405 646.603784 1009.35405 1010.08475 646.139277 1010.08475 636.431672"></polygon>
                        <polygon id="Fill-42" fill="#FFFFFF" points="677.984813 1009.35405 687.69944 1009.35405 1010.08389 687.204368 1010.08389 677.496763"></polygon>
                        <polygon id="Fill-43" fill="#FFFFFF" points="719.078924 1009.35405 728.793551 1009.35405 1010.08492 728.269459 1010.08492 718.560138"></polygon>
                        <polygon id="Fill-44" fill="#FFFFFF" points="760.171489 1009.35405 769.886116 1009.35405 1010.0844 769.331117 1010.0844 759.623512"></polygon>
                        <polygon id="Fill-45" fill="#FFFFFF" points="801.265599 1009.35405 810.980227 1009.35405 1010.08372 810.396208 1010.08372 800.686886"></polygon>
                        <polygon id="Fill-46" fill="#FFFFFF" points="842.35971 1009.35405 852.074338 1009.35405 1010.08475 851.461298 1010.08475 841.753694"></polygon>
                        <polygon id="Fill-47" fill="#FFFFFF" points="883.452275 1009.35405 893.166903 1009.35405 1010.08423 892.522957 1010.08423 882.817068"></polygon>
                        <polygon id="Fill-48" fill="#FFFFFF" points="924.547932 1009.35405 934.262559 1009.35405 1010.08509 933.589764 1010.08509 923.880443"></polygon>
                        <polygon id="Fill-49" fill="#FFFFFF" points="965.642043 1009.35405 975.35667 1009.35405 1010.0844 974.653138 1010.0844 964.945533"></polygon>
                        <polygon id="Fill-50" fill="#3D2A85" points="1006.73615 1009.35405 1010.08372 1009.35405 1010.08372 1006.00891"></polygon>
                    </g>
                </g>
            </g>
        </g>
    </g>
</svg>