<?xml version="1.0" encoding="utf-8"?>
<!-- Generator: Adobe Illustrator 21.1.0, SVG Export Plug-In . SVG Version: 6.00 Build 0)  -->
<svg version="1.1" id="Layer_1" xmlns="http://www.w3.org/2000/svg" xmlns:xlink="http://www.w3.org/1999/xlink" x="0px" y="0px"
	 width="75.189px" height="79.674px" viewBox="0 0 75.189 79.674" enable-background="new 0 0 75.189 79.674" xml:space="preserve">
<g id="icon">
	<g id="Group-3">
		<g>
			<path fill="#E0E1E2" d="M43.86,54.775c0,3.321,5.013,3.321,5.013,0S43.86,51.454,43.86,54.775z"/>
			<path fill="#E0E1E2" d="M43.86,62.244c0,3.321,5.013,3.321,5.013,0C48.873,58.924,43.86,58.923,43.86,62.244z"/>
			<path fill="#E0E1E2" d="M43.86,69.713c0,3.321,5.013,3.321,5.013,0C48.873,66.393,43.86,66.392,43.86,69.713z"/>
			<path fill="#E0E1E2" d="M43.86,77.183c0,3.321,5.013,3.321,5.013,0C48.873,73.862,43.86,73.862,43.86,77.183z"/>
			<path fill="#E0E1E2" d="M43.86,24.898c0,3.321,5.013,3.321,5.013,0S43.86,21.577,43.86,24.898z"/>
			<path fill="#E0E1E2" d="M43.86,32.367c0,3.321,5.013,3.321,5.013,0C48.873,29.047,43.86,29.046,43.86,32.367z"/>
			<path fill="#E0E1E2" d="M43.86,39.837c0,3.321,5.013,3.321,5.013,0S43.86,36.516,43.86,39.837z"/>
			<path fill="#E0E1E2" d="M43.86,47.306c0,3.321,5.013,3.321,5.013,0S43.86,43.985,43.86,47.306z"/>
			<path fill="#E0E1E2" d="M43.86,2.49c0,3.321,5.013,3.321,5.013,0C48.873-0.83,43.86-0.831,43.86,2.49z"/>
			<path fill="#E0E1E2" d="M43.86,9.96c0,3.321,5.013,3.321,5.013,0S43.86,6.639,43.86,9.96z"/>
			<path fill="#E0E1E2" d="M43.86,17.429c0,3.321,5.013,3.321,5.013,0S43.86,14.108,43.86,17.429z"/>
			<path fill="#E0E1E2" d="M0,54.775c0,3.321,5.013,3.321,5.013,0S0,51.454,0,54.775z"/>
			<path fill="#E0E1E2" d="M0,62.244c0,3.321,5.013,3.321,5.013,0C5.013,58.924,0,58.923,0,62.244z"/>
			<path fill="#E0E1E2" d="M0,69.713c0,3.321,5.013,3.321,5.013,0C5.013,66.393,0,66.392,0,69.713z"/>
			<path fill="#E0E1E2" d="M0,77.183c0,3.321,5.013,3.321,5.013,0C5.013,73.862,0,73.862,0,77.183z"/>
			<path fill="#E0E1E2" d="M0,24.898c0,3.321,5.013,3.321,5.013,0S0,21.577,0,24.898z"/>
			<path fill="#E0E1E2" d="M0,32.367c0,3.321,5.013,3.321,5.013,0C5.013,29.047,0,29.046,0,32.367z"/>
			<path fill="#E0E1E2" d="M0,39.837c0,3.321,5.013,3.321,5.013,0S0,36.516,0,39.837z"/>
			<path fill="#E0E1E2" d="M0,47.306c0,3.321,5.013,3.321,5.013,0S0,43.985,0,47.306z"/>
			<path fill="#E0E1E2" d="M0,2.49c0,3.321,5.013,3.321,5.013,0C5.013-0.83,0-0.831,0,2.49z"/>
			<path fill="#E0E1E2" d="M0,9.96c0,3.321,5.013,3.321,5.013,0S0,6.639,0,9.96z"/>
			<path fill="#E0E1E2" d="M0,17.429c0,3.321,5.013,3.321,5.013,0S0,14.108,0,17.429z"/>
			<path fill="#E0E1E2" d="M8.771,54.776c0,3.321,5.013,3.321,5.013,0S8.771,51.455,8.771,54.776z"/>
			<path fill="#E0E1E2" d="M8.771,62.245c0,3.321,5.013,3.321,5.013,0C13.784,58.925,8.771,58.924,8.771,62.245z"/>
			<path fill="#E0E1E2" d="M8.771,69.714c0,3.321,5.013,3.321,5.013,0C13.784,66.394,8.771,66.393,8.771,69.714z"/>
			<path fill="#E0E1E2" d="M8.771,77.184c0,3.321,5.013,3.321,5.013,0C13.784,73.863,8.771,73.863,8.771,77.184z"/>
			<path fill="#E0E1E2" d="M8.771,24.899c0,3.321,5.013,3.321,5.013,0C13.784,21.578,8.771,21.578,8.771,24.899z"/>
			<path fill="#E0E1E2" d="M8.771,32.368c0,3.321,5.013,3.321,5.013,0C13.784,29.048,8.771,29.047,8.771,32.368z"/>
			<path fill="#E0E1E2" d="M8.771,39.838c0,3.321,5.013,3.321,5.013,0S8.771,36.517,8.771,39.838z"/>
			<path fill="#E0E1E2" d="M8.771,47.307c0,3.321,5.013,3.321,5.013,0S8.771,43.986,8.771,47.307z"/>
			<path fill="#E0E1E2" d="M8.771,2.491c0,3.321,5.013,3.321,5.013,0C13.784-0.829,8.771-0.83,8.771,2.491z"/>
			<path fill="#E0E1E2" d="M8.771,9.961c0,3.321,5.013,3.321,5.013,0S8.771,6.64,8.771,9.961z"/>
			<path fill="#E0E1E2" d="M8.771,17.43c0,3.321,5.013,3.321,5.013,0S8.771,14.109,8.771,17.43z"/>
			<path fill="#E0E1E2" d="M17.544,54.776c0,3.321,5.013,3.321,5.013,0C22.557,51.455,17.544,51.455,17.544,54.776z"/>
			<path fill="#E0E1E2" d="M17.544,62.245c0,3.321,5.013,3.321,5.013,0C22.557,58.925,17.544,58.924,17.544,62.245z"/>
			<path fill="#E0E1E2" d="M17.544,69.714c0,3.321,5.013,3.321,5.013,0C22.557,66.394,17.544,66.393,17.544,69.714z"/>
			<path fill="#E0E1E2" d="M17.544,77.184c0,3.321,5.013,3.321,5.013,0S17.544,73.863,17.544,77.184z"/>
			<path fill="#E0E1E2" d="M17.544,24.899c0,3.321,5.013,3.321,5.013,0S17.544,21.578,17.544,24.899z"/>
			<path fill="#E0E1E2" d="M17.544,32.368c0,3.321,5.013,3.321,5.013,0C22.557,29.048,17.544,29.047,17.544,32.368z"/>
			<path fill="#E0E1E2" d="M17.544,39.838c0,3.321,5.013,3.321,5.013,0C22.557,36.517,17.544,36.517,17.544,39.838z"/>
			<path fill="#E0E1E2" d="M17.544,47.307c0,3.321,5.013,3.321,5.013,0C22.557,43.986,17.544,43.986,17.544,47.307z"/>
			<path fill="#E0E1E2" d="M17.544,2.491c0,3.321,5.013,3.321,5.013,0C22.557-0.829,17.544-0.83,17.544,2.491z"/>
			<path fill="#E0E1E2" d="M17.544,9.961c0,3.321,5.013,3.321,5.013,0C22.557,6.64,17.544,6.64,17.544,9.961z"/>
			<path fill="#E0E1E2" d="M17.544,17.43c0,3.321,5.013,3.321,5.013,0C22.557,14.109,17.544,14.109,17.544,17.43z"/>
			<path fill="#E0E1E2" d="M26.315,54.776c0,3.321,5.013,3.321,5.013,0C31.328,51.455,26.315,51.455,26.315,54.776z"/>
			<path fill="#E0E1E2" d="M26.315,62.245c0,3.321,5.013,3.321,5.013,0C31.328,58.925,26.315,58.924,26.315,62.245z"/>
			<path fill="#E0E1E2" d="M26.315,69.714c0,3.321,5.013,3.321,5.013,0C31.328,66.394,26.315,66.393,26.315,69.714z"/>
			<path fill="#E0E1E2" d="M26.315,77.184c0,3.321,5.013,3.321,5.013,0S26.315,73.863,26.315,77.184z"/>
			<path fill="#E0E1E2" d="M26.315,24.899c0,3.321,5.013,3.321,5.013,0S26.315,21.578,26.315,24.899z"/>
			<path fill="#E0E1E2" d="M26.315,32.368c0,3.321,5.013,3.321,5.013,0C31.328,29.048,26.315,29.047,26.315,32.368z"/>
			<path fill="#E0E1E2" d="M26.315,39.838c0,3.321,5.013,3.321,5.013,0C31.328,36.517,26.315,36.517,26.315,39.838z"/>
			<path fill="#E0E1E2" d="M26.315,47.307c0,3.321,5.013,3.321,5.013,0C31.328,43.986,26.315,43.986,26.315,47.307z"/>
			<path fill="#E0E1E2" d="M26.315,2.491c0,3.321,5.013,3.321,5.013,0C31.328-0.829,26.315-0.83,26.315,2.491z"/>
			<path fill="#E0E1E2" d="M26.315,9.961c0,3.321,5.013,3.321,5.013,0C31.328,6.64,26.315,6.64,26.315,9.961z"/>
			<path fill="#E0E1E2" d="M26.315,17.43c0,3.321,5.013,3.321,5.013,0S26.315,14.109,26.315,17.43z"/>
			<path fill="#E0E1E2" d="M35.088,54.776c0,3.321,5.013,3.321,5.013,0S35.088,51.455,35.088,54.776z"/>
			<path fill="#E0E1E2" d="M35.088,62.245c0,3.321,5.013,3.321,5.013,0C40.101,58.925,35.088,58.924,35.088,62.245z"/>
			<path fill="#E0E1E2" d="M35.088,69.714c0,3.321,5.013,3.321,5.013,0C40.101,66.394,35.088,66.393,35.088,69.714z"/>
			<path fill="#E0E1E2" d="M35.088,77.184c0,3.321,5.013,3.321,5.013,0S35.088,73.863,35.088,77.184z"/>
			<path fill="#E0E1E2" d="M35.088,24.899c0,3.321,5.013,3.321,5.013,0C40.101,21.578,35.088,21.578,35.088,24.899z"/>
			<path fill="#E0E1E2" d="M35.088,32.368c0,3.321,5.013,3.321,5.013,0C40.101,29.048,35.088,29.047,35.088,32.368z"/>
			<path fill="#E0E1E2" d="M35.088,39.838c0,3.321,5.013,3.321,5.013,0S35.088,36.517,35.088,39.838z"/>
			<path fill="#E0E1E2" d="M35.088,47.307c0,3.321,5.013,3.321,5.013,0S35.088,43.986,35.088,47.307z"/>
			<path fill="#E0E1E2" d="M35.088,2.491c0,3.321,5.013,3.321,5.013,0C40.101-0.829,35.088-0.83,35.088,2.491z"/>
			<path fill="#E0E1E2" d="M35.088,9.961c0,3.321,5.013,3.321,5.013,0S35.088,6.64,35.088,9.961z"/>
			<path fill="#E0E1E2" d="M35.088,17.43c0,3.321,5.013,3.321,5.013,0C40.101,14.109,35.088,14.109,35.088,17.43z"/>
			<path fill="#E0E1E2" d="M52.632,54.775c0,3.321,5.013,3.321,5.013,0C57.645,51.454,52.632,51.454,52.632,54.775z"/>
			<path fill="#E0E1E2" d="M52.632,62.244c0,3.321,5.013,3.321,5.013,0C57.645,58.924,52.632,58.923,52.632,62.244z"/>
			<path fill="#E0E1E2" d="M52.632,69.713c0,3.321,5.013,3.321,5.013,0C57.645,66.393,52.632,66.392,52.632,69.713z"/>
			<path fill="#E0E1E2" d="M52.632,77.183c0,3.321,5.013,3.321,5.013,0S52.632,73.862,52.632,77.183z"/>
			<path fill="#E0E1E2" d="M52.632,24.898c0,3.321,5.013,3.321,5.013,0C57.645,21.577,52.632,21.577,52.632,24.898z"/>
			<path fill="#E0E1E2" d="M52.632,32.367c0,3.321,5.013,3.321,5.013,0C57.645,29.047,52.632,29.046,52.632,32.367z"/>
			<path fill="#E0E1E2" d="M52.632,39.837c0,3.321,5.013,3.321,5.013,0S52.632,36.516,52.632,39.837z"/>
			<path fill="#E0E1E2" d="M52.632,47.306c0,3.321,5.013,3.321,5.013,0C57.645,43.985,52.632,43.985,52.632,47.306z"/>
			<path fill="#E0E1E2" d="M52.632,2.49c0,3.321,5.013,3.321,5.013,0C57.645-0.83,52.632-0.831,52.632,2.49z"/>
			<path fill="#E0E1E2" d="M52.632,9.96c0,3.321,5.013,3.321,5.013,0C57.645,6.639,52.632,6.639,52.632,9.96z"/>
			<path fill="#E0E1E2" d="M52.632,17.429c0,3.321,5.013,3.321,5.013,0C57.645,14.108,52.632,14.108,52.632,17.429z"/>
			<path fill="#E0E1E2" d="M61.403,54.775C61.403,54.775,61.403,54.775,61.403,54.775C61.403,54.775,61.403,54.775,61.403,54.775
				c0,3.321,5.013,3.321,5.013,0c0,0,0,0,0,0s0,0,0,0C66.416,51.454,61.403,51.454,61.403,54.775z"/>
			<path fill="#E0E1E2" d="M61.403,62.244C61.403,62.244,61.403,62.244,61.403,62.244C61.403,62.244,61.403,62.244,61.403,62.244
				c0,3.321,5.013,3.321,5.013,0c0,0,0,0,0,0s0,0,0,0C66.416,58.924,61.403,58.923,61.403,62.244z"/>
			<path fill="#E0E1E2" d="M61.403,69.713C61.403,69.713,61.403,69.713,61.403,69.713C61.403,69.713,61.403,69.713,61.403,69.713
				c0,3.321,5.013,3.321,5.013,0c0,0,0,0,0,0s0,0,0,0C66.416,66.393,61.403,66.392,61.403,69.713z"/>
			<path fill="#E0E1E2" d="M61.403,77.183C61.403,77.183,61.403,77.183,61.403,77.183C61.403,77.183,61.403,77.183,61.403,77.183
				c0,3.321,5.013,3.321,5.013,0c0,0,0,0,0,0s0,0,0,0C66.416,73.862,61.403,73.862,61.403,77.183z"/>
			<path fill="#E0E1E2" d="M61.403,24.898C61.403,24.898,61.403,24.898,61.403,24.898C61.403,24.898,61.403,24.898,61.403,24.898
				c0,3.321,5.013,3.321,5.013,0c0,0,0,0,0,0s0,0,0,0C66.416,21.577,61.403,21.577,61.403,24.898z"/>
			<path fill="#E0E1E2" d="M61.403,32.367C61.403,32.367,61.403,32.367,61.403,32.367C61.403,32.367,61.403,32.367,61.403,32.367
				c0,3.321,5.013,3.321,5.013,0c0,0,0,0,0,0s0,0,0,0C66.416,29.047,61.403,29.046,61.403,32.367z"/>
			<path fill="#E0E1E2" d="M61.403,39.837C61.403,39.837,61.403,39.837,61.403,39.837C61.403,39.837,61.403,39.837,61.403,39.837
				c0,3.321,5.013,3.321,5.013,0c0,0,0,0,0,0s0,0,0,0C66.416,36.516,61.403,36.516,61.403,39.837z"/>
			<path fill="#E0E1E2" d="M61.403,47.306C61.403,47.306,61.403,47.306,61.403,47.306C61.403,47.306,61.403,47.306,61.403,47.306
				c0,3.321,5.013,3.321,5.013,0c0,0,0,0,0,0s0,0,0,0C66.416,43.985,61.403,43.985,61.403,47.306z"/>
			<path fill="#E0E1E2" d="M61.403,2.49C61.403,2.49,61.403,2.49,61.403,2.49C61.403,2.49,61.403,2.49,61.403,2.49
				c0,3.321,5.013,3.321,5.013,0c0,0,0,0,0,0s0,0,0,0C66.416-0.83,61.403-0.831,61.403,2.49z"/>
			<path fill="#E0E1E2" d="M61.403,9.96C61.403,9.96,61.403,9.96,61.403,9.96C61.403,9.96,61.403,9.96,61.403,9.96
				c0,3.321,5.013,3.321,5.013,0c0,0,0,0,0,0s0,0,0,0C66.416,6.639,61.403,6.639,61.403,9.96z"/>
			<path fill="#E0E1E2" d="M61.403,17.429C61.403,17.429,61.403,17.429,61.403,17.429C61.403,17.429,61.403,17.429,61.403,17.429
				c0,3.321,5.013,3.321,5.013,0c0,0,0,0,0,0s0,0,0,0C66.416,14.108,61.403,14.108,61.403,17.429z"/>
			<path fill="#E0E1E2" d="M70.174,54.776c0,3.321,5.013,3.321,5.013,0C75.187,51.455,70.174,51.455,70.174,54.776z"/>
			<path fill="#E0E1E2" d="M70.174,62.245c0,3.321,5.013,3.321,5.013,0C75.187,58.925,70.174,58.924,70.174,62.245z"/>
			<path fill="#E0E1E2" d="M70.174,69.714c0,3.321,5.013,3.321,5.013,0C75.187,66.394,70.174,66.393,70.174,69.714z"/>
			<path fill="#E0E1E2" d="M70.174,77.184c0,3.321,5.013,3.321,5.013,0S70.174,73.863,70.174,77.184z"/>
			<path fill="#E0E1E2" d="M70.174,24.899c0,3.321,5.013,3.321,5.013,0S70.174,21.578,70.174,24.899z"/>
			<path fill="#E0E1E2" d="M70.174,32.368c0,3.321,5.013,3.321,5.013,0C75.187,29.048,70.174,29.047,70.174,32.368z"/>
			<path fill="#E0E1E2" d="M70.174,39.838c0,3.321,5.013,3.321,5.013,0C75.187,36.517,70.174,36.517,70.174,39.838z"/>
			<path fill="#E0E1E2" d="M70.174,47.306c0,3.321,5.013,3.321,5.013,0C75.187,43.986,70.174,43.986,70.174,47.306z"/>
			<path fill="#E0E1E2" d="M75.187,2.491c0-3.32-5.013-3.321-5.013,0S75.187,5.812,75.187,2.491z"/>
			<path fill="#E0E1E2" d="M70.174,9.961c0,3.321,5.013,3.321,5.013,0C75.187,6.64,70.174,6.64,70.174,9.961z"/>
			<path fill="#E0E1E2" d="M70.174,17.43c0,3.321,5.013,3.321,5.013,0C75.187,14.109,70.174,14.109,70.174,17.43z"/>
		</g>
		<g>
			<path id="Shape_2_" fill="#50E3C2" d="M5.013,69.713c0,3.321-5.013,3.321-5.013,0S5.013,66.393,5.013,69.713"/>
			<path id="Shape_6_" fill="#50E3C2" d="M13.784,69.713c0,3.321-5.013,3.321-5.013,0S13.784,66.393,13.784,69.713"/>
			<path id="Shape_12_" fill="#50E3C2" d="M22.557,69.713c0,3.321-5.013,3.321-5.013,0S22.557,66.393,22.557,69.713"/>
			<path id="Shape_16_" fill="#50E3C2" d="M31.329,69.713c0,3.321-5.013,3.321-5.013,0S31.329,66.393,31.329,69.713"/>
			<path id="Shape_23_" fill="#50E3C2" d="M40.101,69.713c0,3.321-5.013,3.321-5.013,0S40.101,66.393,40.101,69.713"/>
			<path id="Shape_37_" fill="#50E3C2" d="M57.645,69.713c0,3.321-5.013,3.321-5.013,0S57.645,66.393,57.645,69.713"/>
			<path id="Shape_45_" fill="#50E3C2" d="M66.418,69.713c0,3.321-5.013,3.321-5.013,0S66.418,66.393,66.418,69.713"/>
			<path id="Shape_53_" fill="#50E3C2" d="M75.189,69.713c0,3.321-5.013,3.321-5.013,0S75.189,66.393,75.189,69.713"/>
			<path id="Shape_111_" fill="#50E3C2" d="M48.872,69.715c0,3.321-5.013,3.321-5.013,0C43.859,66.394,48.872,66.395,48.872,69.715"
				/>
		</g>
		<g>
			<path id="Shape_3_" fill="#50E3C2" d="M5.013,77.183c0,3.321-5.013,3.321-5.013,0S5.013,73.862,5.013,77.183"/>
			<path id="Shape_7_" fill="#50E3C2" d="M13.784,77.183c0,3.321-5.013,3.321-5.013,0S13.784,73.862,13.784,77.183"/>
			<path id="Shape_13_" fill="#50E3C2" d="M22.557,77.183c0,3.321-5.013,3.321-5.013,0S22.557,73.862,22.557,77.183"/>
			<path id="Shape_17_" fill="#50E3C2" d="M31.329,77.183c0,3.321-5.013,3.321-5.013,0S31.329,73.862,31.329,77.183"/>
			<path id="Shape_24_" fill="#50E3C2" d="M40.101,77.183c0,3.321-5.013,3.321-5.013,0S40.101,73.862,40.101,77.183"/>
			<path id="Shape_38_" fill="#50E3C2" d="M57.645,77.183c0,3.321-5.013,3.321-5.013,0S57.645,73.862,57.645,77.183"/>
			<path id="Shape_46_" fill="#50E3C2" d="M66.418,77.183c0,3.321-5.013,3.321-5.013,0S66.418,73.862,66.418,77.183"/>
			<path id="Shape_54_" fill="#50E3C2" d="M75.189,77.183c0,3.321-5.013,3.321-5.013,0S75.189,73.862,75.189,77.183"/>
			<path id="Shape_110_" fill="#50E3C2" d="M48.872,77.185c0,3.321-5.013,3.321-5.013,0C43.859,73.864,48.872,73.864,48.872,77.185"
				/>
		</g>
	</g>
</g>
</svg>
