<?xml version="1.0" encoding="utf-8"?>
<!-- Generator: Adobe Illustrator 21.1.0, SVG Export Plug-In . SVG Version: 6.00 Build 0)  -->
<svg version="1.1" id="Layer_1" xmlns="http://www.w3.org/2000/svg" xmlns:xlink="http://www.w3.org/1999/xlink" x="0px" y="0px"
	 width="664.61px" height="575.098px" viewBox="0 0 664.61 575.098" enable-background="new 0 0 664.61 575.098"
	 xml:space="preserve">
<desc>Created with Sketch.</desc>
<g>
	<polygon fill="#E01931" points="0.033,6.386 0.033,0 575.658,575.098 569.267,575.098 	"/>
	<polygon fill="#E01931" points="0.033,33.399 0.033,27.013 548.621,575.098 542.228,575.098 	"/>
	<polygon fill="#E01931" points="0.033,60.412 0.033,54.027 521.584,575.098 515.191,575.098 	"/>
	<polygon fill="#E01931" points="0.033,87.423 0.033,81.039 494.546,575.098 488.155,575.098 	"/>
	<polygon fill="#E01931" points="0.032,114.438 0.032,108.051 467.508,575.098 461.117,575.098 	"/>
	<polygon fill="#E01931" points="0.033,141.45 0.033,135.064 440.471,575.098 434.08,575.098 	"/>
	<polygon fill="#E01931" points="0.033,168.463 0.033,162.076 413.434,575.098 407.041,575.098 	"/>
	<polygon fill="#E01931" points="0.033,195.475 0.033,189.088 386.396,575.098 380.005,575.098 	"/>
	<polygon fill="#E01931" points="0.033,222.487 0.033,216.103 359.359,575.098 352.967,575.098 	"/>
	<polygon fill="#E01931" points="0.032,249.502 0.032,243.115 332.321,575.098 325.929,575.098 	"/>
	<polygon fill="#E01931" points="0.033,276.514 0.033,270.127 305.284,575.098 298.893,575.098 	"/>
	<polygon fill="#E01931" points="0.033,303.526 0.033,297.14 278.246,575.098 271.855,575.098 	"/>
	<polygon fill="#E01931" points="0.032,330.539 0.032,324.152 251.209,575.098 244.817,575.098 	"/>
	<polygon fill="#E01931" points="0.033,357.55 0.033,351.164 224.172,575.098 217.781,575.098 	"/>
	<polygon fill="#E01931" points="0.033,384.563 0.033,378.178 197.134,575.098 190.743,575.098 	"/>
	<polygon fill="#E01931" points="0.033,411.578 0.033,405.191 170.097,575.098 163.705,575.098 	"/>
	<polygon fill="#E01931" points="0.033,438.59 0.033,432.204 143.059,575.098 136.667,575.098 	"/>
	<polygon fill="#E01931" points="0.032,465.603 0.032,459.216 116.022,575.098 109.629,575.098 	"/>
	<polygon fill="#E01931" points="0.033,492.614 0.033,486.228 88.985,575.098 82.593,575.098 	"/>
	<polygon fill="#E01931" points="0.033,519.627 0.033,513.241 61.947,575.098 55.556,575.098 	"/>
	<polygon fill="#E01931" points="0.033,546.64 0.033,540.254 34.909,575.098 28.517,575.098 	"/>
	<polygon fill="#E01931" points="0.033,573.653 0.033,567.268 7.871,575.098 1.479,575.098 	"/>
	<polygon fill="#E01931" points="0.033,19.85 0.033,13.464 562.183,575.098 555.79,575.098 	"/>
	<polygon fill="#E01931" points="0.033,46.863 0.033,40.477 535.146,575.098 528.754,575.098 	"/>
	<polygon fill="#E01931" points="0.033,73.876 0.033,67.489 508.108,575.098 501.715,575.098 	"/>
	<polygon fill="#E01931" points="0.033,100.887 0.033,94.501 481.071,575.098 474.678,575.098 	"/>
	<polygon fill="#E01931" points="0.032,127.9 0.032,121.514 454.032,575.098 447.64,575.098 	"/>
	<polygon fill="#E01931" points="0.033,154.913 0.033,148.528 426.995,575.098 420.604,575.098 	"/>
	<polygon fill="#E01931" points="0.033,181.926 0.033,175.541 399.958,575.098 393.565,575.098 	"/>
	<polygon fill="#E01931" points="0.032,208.939 0.032,202.552 372.921,575.098 366.528,575.098 	"/>
	<polygon fill="#E01931" points="0.033,235.951 0.033,229.565 345.884,575.098 339.492,575.098 	"/>
	<polygon fill="#E01931" points="0.033,262.964 0.033,256.578 318.846,575.098 312.454,575.098 	"/>
	<polygon fill="#E01931" points="0.033,289.976 0.033,283.59 291.808,575.098 285.416,575.098 	"/>
	<polygon fill="#E01931" points="0.033,316.989 0.033,310.604 264.77,575.098 258.379,575.098 	"/>
	<polygon fill="#E01931" points="0.032,344.003 0.032,337.616 237.733,575.098 231.341,575.098 	"/>
	<polygon fill="#E01931" points="0.033,371.014 0.033,364.629 210.696,575.098 204.305,575.098 	"/>
	<polygon fill="#E01931" points="0.033,398.027 0.033,391.641 183.659,575.098 177.268,575.098 	"/>
	<polygon fill="#E01931" points="0.033,425.04 0.033,418.654 156.621,575.098 150.23,575.098 	"/>
	<polygon fill="#E01931" points="0.033,452.053 0.033,445.668 129.583,575.098 123.191,575.098 	"/>
	<polygon fill="#E01931" points="0.032,479.067 0.032,472.68 102.545,575.098 96.153,575.098 	"/>
	<polygon fill="#E01931" points="0.033,506.078 0.033,499.692 75.509,575.098 69.117,575.098 	"/>
	<polygon fill="#E01931" points="0.033,533.091 0.033,526.704 48.472,575.098 42.079,575.098 	"/>
	<polygon fill="#E01931" points="0.033,560.104 0.033,553.718 21.433,575.098 15.041,575.098 	"/>
</g>
</svg>
