
<svg width="577px" height="576px" viewBox="0 0 577 576" version="1.1" xmlns="http://www.w3.org/2000/svg" xmlns:xlink="http://www.w3.org/1999/xlink">
    <!-- Generator: Sketch 48.2 (47327) - http://www.bohemiancoding.com/sketch -->
    <desc>Created with Sketch.</desc>
    <defs></defs>
    <g id="Concept-4-rev-1" stroke="none" stroke-width="1" fill="none" fill-rule="evenodd">
        <g id="Concept-4-rev-1---Home" transform="translate(-68.000000, 0.000000)" fill="#FFFFFF">
            <g id="Group-5" transform="translate(67.000000, -88.000000)">
                <g id="Group-2">
                    <g id="Page-1-Copy-3" transform="translate(333.109797, 332.000000) rotate(-180.000000) translate(-333.109797, -332.000000) translate(0.609797, 0.000000)">
                        <polygon id="Fill-1" points="664.577029 -0.000112903226 0.000113006757 663.967952 6.39177517 663.967952 664.577029 6.38569355"></polygon>
                        <polygon id="Fill-2" points="27.0375446 663.968065 33.4303368 663.968065 664.576464 33.3990323 664.576464 27.0132258"></polygon>
                        <polygon id="Fill-3" points="54.0740721 663.968065 60.4668644 663.968065 664.577255 60.4122581 664.577255 54.0264516"></polygon>
                        <polygon id="Fill-4" points="81.1126338 663.968065 87.5031659 663.968065 664.57669 87.4232258 664.57669 81.0385484"></polygon>
                        <polygon id="Fill-5" points="108.150178 663.968065 114.54071 663.968065 664.577368 114.437581 664.577368 108.050645"></polygon>
                        <polygon id="Fill-6" points="135.186706 663.968065 141.578368 663.968065 664.577029 141.449677 664.577029 135.063871"></polygon>
                        <polygon id="Fill-7" points="162.224251 663.968065 168.617043 663.968065 664.576577 168.462903 664.576577 162.075968"></polygon>
                        <polygon id="Fill-8" points="189.261795 663.968065 195.653457 663.968065 664.577255 195.475 664.577255 189.088065"></polygon>
                        <polygon id="Fill-9" points="216.29934 663.968065 222.691002 663.968065 664.576803 222.487097 664.576803 216.102419"></polygon>
                        <polygon id="Fill-10" points="243.336884 663.968065 249.728546 663.968065 664.577481 249.501452 664.577481 243.114516"></polygon>
                        <polygon id="Fill-11" points="270.374429 663.968065 276.764961 663.968065 664.577029 276.513548 664.577029 270.126613"></polygon>
                        <polygon id="Fill-12" points="297.411973 663.968065 303.803636 663.968065 664.576577 303.525645 664.576577 297.139839"></polygon>
                        <polygon id="Fill-13" points="324.448501 663.968065 330.841293 663.968065 664.577368 330.538871 664.577368 324.151935"></polygon>
                        <polygon id="Fill-14" points="351.486046 663.968065 357.877708 663.968065 664.576916 357.549839 664.576916 351.164032"></polygon>
                        <polygon id="Fill-15" points="378.52359 663.968065 384.915252 663.968065 664.576464 384.563065 664.576464 378.178387"></polygon>
                        <polygon id="Fill-16" points="405.561135 663.968065 411.952797 663.968065 664.577142 411.577419 664.577142 405.190484"></polygon>
                        <polygon id="Fill-17" points="432.598679 663.968065 438.990342 663.968065 664.57669 438.589516 664.57669 432.20371"></polygon>
                        <polygon id="Fill-18" points="459.636224 663.968065 466.027886 663.968065 664.577368 465.602742 664.577368 459.215806"></polygon>
                        <polygon id="Fill-19" points="486.672752 663.968065 493.065544 663.968065 664.577029 492.61371 664.577029 486.227903"></polygon>
                        <polygon id="Fill-20" points="513.710296 663.968065 520.101958 663.968065 664.576577 519.626935 664.576577 513.241129"></polygon>
                        <polygon id="Fill-21" points="540.748858 663.968065 547.14052 663.968065 664.577142 546.640161 664.577142 540.254355"></polygon>
                        <polygon id="Fill-22" points="567.786402 663.968065 574.178065 663.968065 664.57669 573.653387 664.57669 567.267581"></polygon>
                        <polygon id="Fill-26" points="13.4750387 663.968065 19.8678309 663.968065 664.577029 19.8495161 664.577029 13.4637097"></polygon>
                        <polygon id="Fill-27" points="40.5125833 663.968065 46.9042454 663.968065 664.576577 46.8627419 664.576577 40.4769355"></polygon>
                        <polygon id="Fill-28" points="67.5501279 663.968065 73.9429201 663.968065 664.577255 73.8759677 664.577255 67.4890323"></polygon>
                        <polygon id="Fill-29" points="94.5876725 663.968065 100.980465 663.968065 664.576803 100.886935 664.576803 94.501129"></polygon>
                        <polygon id="Fill-30" points="121.626234 663.968065 128.017896 663.968065 664.577368 127.900161 664.577368 121.514355"></polygon>
                        <polygon id="Fill-31" points="148.662762 663.968065 155.054424 663.968065 664.577029 154.913387 664.577029 148.527581"></polygon>
                        <polygon id="Fill-32" points="175.700306 663.968065 182.093098 663.968065 664.576577 181.925484 664.576577 175.540806"></polygon>
                        <polygon id="Fill-33" points="202.736834 663.968065 209.129626 663.968065 664.577368 208.93871 664.577368 202.551774"></polygon>
                        <polygon id="Fill-34" points="229.774378 663.968065 236.166041 663.968065 664.576916 235.950806 664.576916 229.565"></polygon>
                        <polygon id="Fill-35" points="256.811923 663.968065 263.203585 663.968065 664.576464 262.964032 664.576464 256.578226"></polygon>
                        <polygon id="Fill-36" points="283.850485 663.968065 290.242147 663.968065 664.577029 289.976129 664.577029 283.590323"></polygon>
                        <polygon id="Fill-37" points="310.888029 663.968065 317.279691 663.968065 664.576577 316.989355 664.576577 310.603548"></polygon>
                        <polygon id="Fill-38" points="337.924557 663.968065 344.316219 663.968065 664.577368 344.002581 664.577368 337.615645"></polygon>
                        <polygon id="Fill-39" points="364.962101 663.968065 371.353764 663.968065 664.576916 371.013548 664.576916 364.628871"></polygon>
                        <polygon id="Fill-40" points="391.998629 663.968065 398.390291 663.968065 664.576577 398.026774 664.576577 391.640968"></polygon>
                        <polygon id="Fill-41" points="419.036173 663.968065 425.427836 663.968065 664.577255 425.04 664.577255 418.654194"></polygon>
                        <polygon id="Fill-42" points="446.074735 663.968065 452.466397 663.968065 664.57669 452.053226 664.57669 445.667419"></polygon>
                        <polygon id="Fill-43" points="473.11228 663.968065 479.503942 663.968065 664.577368 479.066452 664.577368 472.679516"></polygon>
                        <polygon id="Fill-44" points="500.148807 663.968065 506.540469 663.968065 664.577029 506.077419 664.577029 499.691613"></polygon>
                        <polygon id="Fill-45" points="527.186352 663.968065 533.578014 663.968065 664.576577 533.090645 664.576577 526.70371"></polygon>
                        <polygon id="Fill-46" points="554.223896 663.968065 560.615559 663.968065 664.577255 560.103871 664.577255 553.718065"></polygon>
                    </g>
                </g>
            </g>
        </g>
    </g>
</svg>