<?xml version="1.0" encoding="utf-8"?>
<!-- Generator: Adobe Illustrator 21.1.0, SVG Export Plug-In . SVG Version: 6.00 Build 0)  -->
<svg version="1.1" id="Layer_1" xmlns="http://www.w3.org/2000/svg" xmlns:xlink="http://www.w3.org/1999/xlink" x="0px" y="0px"
	 width="577px" height="576px" viewBox="0 0 577 576" style="enable-background:new 0 0 577 576;" xml:space="preserve">
<style type="text/css">
	.st0{fill:#FFFFFF;}
</style>
<desc>Created with Sketch.</desc>
<g id="Concept-4-rev-1">
	<g id="Concept-4-rev-1---Home" transform="translate(-68.000000, 0.000000)">
		<g id="Group-5" transform="translate(67.000000, -88.000000)">
			<g id="Group-2">
				
					<g id="Page-1-Copy-3" transform="translate(333.109797, 332.000000) rotate(-180.000000) translate(-333.109797, -332.000000) translate(0.609797, 0.000000)">
					<polygon id="Fill-1" class="st0" points="0.001,663.968 664.577,0 658.186,0 0.001,657.582 					"/>
					<polygon id="Fill-2" class="st0" points="637.54,0 631.147,0 0.001,630.569 0.001,636.955 					"/>
					<polygon id="Fill-3" class="st0" points="610.503,0 604.111,0 0,603.556 0,609.942 					"/>
					<polygon id="Fill-4" class="st0" points="583.465,0 577.074,0 0.001,576.545 0.001,582.929 					"/>
					<polygon id="Fill-5" class="st0" points="556.427,0 550.037,0 0,549.53 0,555.917 					"/>
					<polygon id="Fill-6" class="st0" points="529.391,0 522.999,0 0.001,522.518 0.001,528.904 					"/>
					<polygon id="Fill-7" class="st0" points="502.353,0 495.961,0 0.001,495.505 0.001,501.892 					"/>
					<polygon id="Fill-8" class="st0" points="475.316,0 468.924,0 0,468.493 0,474.88 					"/>
					<polygon id="Fill-9" class="st0" points="448.278,0 441.887,0 0.001,441.481 0.001,447.866 					"/>
					<polygon id="Fill-10" class="st0" points="421.241,0 414.849,0 0,414.467 0,420.853 					"/>
					<polygon id="Fill-11" class="st0" points="394.203,0 387.813,0 0.001,387.454 0.001,393.841 					"/>
					<polygon id="Fill-12" class="st0" points="367.166,0 360.774,0 0.001,360.442 0.001,366.828 					"/>
					<polygon id="Fill-13" class="st0" points="340.129,0 333.736,0 0,333.429 0,339.816 					"/>
					<polygon id="Fill-14" class="st0" points="313.092,0 306.7,0 0.001,306.418 0.001,312.804 					"/>
					<polygon id="Fill-15" class="st0" points="286.054,0 279.662,0 0.001,279.405 0.001,285.79 					"/>
					<polygon id="Fill-16" class="st0" points="259.016,0 252.625,0 0,252.391 0,258.777 					"/>
					<polygon id="Fill-17" class="st0" points="231.979,0 225.587,0 0.001,225.378 0.001,231.764 					"/>
					<polygon id="Fill-18" class="st0" points="204.941,0 198.55,0 0,198.365 0,204.752 					"/>
					<polygon id="Fill-19" class="st0" points="177.905,0 171.512,0 0.001,171.354 0.001,177.74 					"/>
					<polygon id="Fill-20" class="st0" points="150.867,0 144.476,0 0.001,144.341 0.001,150.727 					"/>
					<polygon id="Fill-21" class="st0" points="123.829,0 117.437,0 0,117.328 0,123.714 					"/>
					<polygon id="Fill-22" class="st0" points="96.791,0 90.4,0 0.001,90.315 0.001,96.7 					"/>
					<polygon id="Fill-26" class="st0" points="651.103,0 644.71,0 0.001,644.118 0.001,650.504 					"/>
					<polygon id="Fill-27" class="st0" points="624.065,0 617.673,0 0.001,617.105 0.001,623.491 					"/>
					<polygon id="Fill-28" class="st0" points="597.027,0 590.635,0 0,590.092 0,596.479 					"/>
					<polygon id="Fill-29" class="st0" points="569.99,0 563.597,0 0.001,563.081 0.001,569.467 					"/>
					<polygon id="Fill-30" class="st0" points="542.951,0 536.56,0 0,536.068 0,542.454 					"/>
					<polygon id="Fill-31" class="st0" points="515.915,0 509.523,0 0.001,509.055 0.001,515.44 					"/>
					<polygon id="Fill-32" class="st0" points="488.877,0 482.484,0 0.001,482.042 0.001,488.427 					"/>
					<polygon id="Fill-33" class="st0" points="461.841,0 455.448,0 0,455.029 0,461.416 					"/>
					<polygon id="Fill-34" class="st0" points="434.803,0 428.412,0 0.001,428.017 0.001,434.403 					"/>
					<polygon id="Fill-35" class="st0" points="407.766,0 401.374,0 0.001,401.004 0.001,407.39 					"/>
					<polygon id="Fill-36" class="st0" points="380.727,0 374.335,0 0.001,373.992 0.001,380.378 					"/>
					<polygon id="Fill-37" class="st0" points="353.69,0 347.298,0 0.001,346.979 0.001,353.364 					"/>
					<polygon id="Fill-38" class="st0" points="326.653,0 320.261,0 0,319.965 0,326.352 					"/>
					<polygon id="Fill-39" class="st0" points="299.615,0 293.224,0 0.001,292.954 0.001,299.339 					"/>
					<polygon id="Fill-40" class="st0" points="272.579,0 266.187,0 0.001,265.941 0.001,272.327 					"/>
					<polygon id="Fill-41" class="st0" points="245.541,0 239.15,0 0,238.928 0,245.314 					"/>
					<polygon id="Fill-42" class="st0" points="218.503,0 212.111,0 0.001,211.915 0.001,218.301 					"/>
					<polygon id="Fill-43" class="st0" points="191.465,0 185.074,0 0,184.902 0,191.288 					"/>
					<polygon id="Fill-44" class="st0" points="164.429,0 158.037,0 0.001,157.891 0.001,164.276 					"/>
					<polygon id="Fill-45" class="st0" points="137.391,0 131,0 0.001,130.877 0.001,137.264 					"/>
					<polygon id="Fill-46" class="st0" points="110.354,0 103.962,0 0,103.864 0,110.25 					"/>
				</g>
			</g>
		</g>
	</g>
</g>
</svg>
